<svg width="800" height="400" viewBox="0 0 800 400" fill="none" xmlns="http://www.w3.org/2000/svg">
<path d="M417.548 98.0629C429.819 93.3186 460.817 92.5627 473.905 96.6794C482.817 97.8874 498.46 104.353 505.273 110.283C514.32 113.135 531.241 136.467 533.566 145.585C540.293 158.326 540.311 182.519 540.022 197.054C540.121 198.011 540.076 197.315 540.099 198.359C541.291 229.565 539.322 259.178 515.634 282.706C482.144 315.957 413.363 314.385 380.546 280.804C356.305 255.997 356.234 227.445 356.335 195.759C356.236 181.352 355.627 165.621 360.043 151.775C363.743 136.205 378.678 116.567 392.799 108.797C396.022 105.563 412.505 99.0517 417.548 98.0629ZM412.925 242.63C413.44 243.16 413.512 243.164 413.887 243.81C424.139 261.61 448.839 264.385 466.564 257.133C474.419 253.922 480.844 247.218 484.013 239.084C485.2 236.412 485.647 233.423 486.153 230.559C487.128 219.142 486.762 206.8 486.767 195.285C486.771 186.592 487.277 172.684 485.44 164.607C484.212 159.212 481.692 154.184 478.103 149.94C465.011 134.535 435.413 134.336 420.311 146.934C412.848 153.16 409.033 162.409 408.451 171.958C408.126 179.783 408.171 189.664 408.288 197.582C408.437 207.458 407.814 222.26 409.403 231.855C410.185 235.156 412.654 241.084 412.925 242.63Z" fill="#EF233C"/>
<path d="M356.335 195.759C357.349 197.698 357.387 198.157 357.333 200.339C358.547 202.351 361.521 203.293 364.101 203.74C376.578 205.902 387.22 213.917 400.297 213.348C401.58 213.293 405.228 213.481 406.103 215.449C405.927 220.545 402.099 225.663 404.582 231.628C404.654 231.735 404.722 231.846 404.79 231.953L405.255 231.356L409.404 231.855C410.185 235.155 412.654 241.084 412.925 242.63C413.44 243.16 413.512 243.164 413.887 243.81C424.139 261.61 448.839 264.385 466.564 257.133C474.419 253.922 480.844 247.218 484.013 239.084C485.2 236.412 485.647 233.423 486.153 230.559C487.562 230.073 488.781 229.432 490.158 229.757C491.273 231.102 491.074 231.601 491.115 233.596C491.458 232.028 491.909 230.42 492.316 228.861C492 227.783 491.814 227.392 491.778 226.278C495.702 222.848 502.388 223.245 507.137 220.599C510.659 218.532 512.763 213.133 515.819 210.775C519.842 207.668 534.889 201.439 539.318 202.061C539.404 200.583 539.417 199.232 539.431 197.751L540.022 197.053C540.121 198.011 540.076 197.314 540.099 198.359C541.291 229.565 539.322 259.178 515.634 282.706C482.144 315.957 413.363 314.385 380.546 280.804C356.305 255.997 356.234 227.445 356.335 195.759Z" fill="#EF233C"/>
<path d="M484.013 239.084C485.223 240.741 485.805 241.347 487.259 242.826L487.62 242.683L487.905 242.808C484.469 251.663 477.575 258.786 468.767 262.576C457.855 267.374 441.589 268.069 430.374 263.792C423.458 261.155 414.902 255.521 411.625 248.728L412.036 248.541C412.663 249.311 412.401 249.209 413.214 249.605C414.415 248.095 414.46 248.496 414.672 246.861C413.629 245.129 413.191 244.608 412.925 242.63C413.44 243.16 413.512 243.164 413.887 243.81C424.139 261.61 448.839 264.385 466.564 257.133C474.419 253.922 480.844 247.218 484.013 239.084Z" fill="#EF233C"/>
<path d="M404.79 231.953L405.255 231.356L409.404 231.855C410.185 235.156 412.654 241.084 412.925 242.63C413.191 244.608 413.629 245.129 414.672 246.861C414.46 248.496 414.415 248.095 413.214 249.605C412.401 249.209 412.663 249.311 412.036 248.541L411.625 248.728C408.731 245.632 405.738 236.158 404.79 231.953Z" fill="#EF233C"/>
<path d="M486.153 230.559C487.562 230.073 488.78 229.432 490.157 229.757C491.273 231.102 491.074 231.601 491.115 233.596C490.383 236.367 489.453 240.452 487.905 242.808L487.62 242.683L487.259 242.826C485.805 241.347 485.223 240.741 484.013 239.084C485.2 236.412 485.647 233.423 486.153 230.559Z" fill="#EF233C"/>
<path d="M417.548 98.0629C429.819 93.3186 460.817 92.5627 473.905 96.6794C482.817 97.8874 498.46 104.353 505.273 110.283C506.018 112.367 509.246 113.137 510.307 115.538C508.279 119.337 493.232 121.897 493.395 126.764C494.392 127.921 494.501 127.776 496.189 127.866L495.494 129.025L494.808 129.177C485.729 120.584 473.133 115.911 460.871 113.958C444.988 111.428 419.805 114.519 406.519 124.032C402.862 125.739 397.273 130.284 394.383 133.143C395.796 120.442 389.752 124.557 383.948 116.292C386.454 114.526 391.36 111.275 392.799 108.797C396.022 105.563 412.505 99.0517 417.548 98.0629Z" fill="#EF233C"/>
<path d="M417.548 98.0629C429.819 93.3186 460.817 92.5627 473.905 96.6794C468.925 96.6865 465.733 98.2647 460.771 98.4335C454.677 98.6406 448.641 98.7038 442.541 98.6032C439.092 98.5466 434.632 99.3029 431.336 98.9871C426.604 98.5332 422.266 98.3039 417.548 98.0629Z" fill="#EF233C"/>
<path d="M505.273 110.283C514.32 113.135 531.241 136.467 533.566 145.585L533.214 146.019L534.094 149.021C532.546 148.982 532.324 149.842 531.462 150.944C527.846 149.958 524.356 148.605 520.627 147.926C516.067 147.095 512.352 147.554 507.959 145.882C507.115 144.611 506.46 143.126 505.796 141.74L506.27 141.548C505.264 138.867 497.327 131.921 494.808 129.177L495.494 129.025L496.189 127.866C494.501 127.776 494.392 127.921 493.394 126.764C493.232 121.897 508.279 119.337 510.306 115.538C509.245 113.137 506.018 112.367 505.273 110.283Z" fill="#EF233C"/>
<path d="M360.043 151.775C363.743 136.204 378.678 116.567 392.799 108.797C391.36 111.275 386.454 114.526 383.948 116.292C389.752 124.557 395.796 120.442 394.383 133.143C393.769 133.889 383.899 146.209 384.819 145.871C370.73 148.47 368.548 147.88 359.237 158.553C359.586 156.673 360.242 153.627 360.043 151.775Z" fill="#EF233C"/>
<path d="M406.519 124.032C419.805 114.519 444.988 111.428 460.871 113.958C473.133 115.911 485.729 120.584 494.808 129.177C497.327 131.921 505.264 138.867 506.27 141.547L505.796 141.74C502.46 142.586 502.632 142.141 499.62 140.331C493.444 136.617 489.674 130.414 483.738 126.575C479.792 124.023 476.316 122.916 473.313 118.816C469.507 117.403 465.598 119.005 462.022 116.214C459.765 114.452 453.467 114.692 451.214 114.519C439.399 113.606 428.704 115.382 417.548 119.243C414.645 120.247 408.88 123.9 406.519 124.032Z" fill="#EF233C"/>
<path d="M385.336 200.199C387.177 200.37 387.431 200.287 388.788 201.429C389.044 203.14 389.181 202.289 387.914 203.982C386.341 204.596 386.097 204.514 385.035 203.423C384.687 201.808 384.838 201.74 385.336 200.199Z" fill="#EF233C"/>
<path d="M120.419 96.5573C127.333 96.1021 136.049 96.1814 142.997 96.3916C175.557 97.3765 219.556 90.3778 245.799 113.136L246.3 113.574C255.375 121.829 262.647 133.632 264.388 145.787C266.62 154.258 266.05 168.361 263.914 176.887C259.146 196.93 245.264 212.343 226.704 221.276C231.28 226.323 243.854 245.699 248.409 252.336L267.037 279.842C270.371 284.759 273.761 289.614 276.897 294.683C280.101 299.485 278.534 303.681 272.273 303.748C262.157 303.85 251.963 303.619 241.829 303.806C237.822 303.877 232.521 303.984 228.667 303.271C224.817 299.752 205.818 271.877 201.663 265.476C195.25 255.597 181.762 237.24 176.534 227.654C168.881 228.002 162.122 227.859 154.477 227.668L154.533 272.928C154.539 280.732 154.751 288.706 154.327 296.456C153.589 301.187 153.33 303.908 147.907 303.819C134.488 303.605 121.216 303.966 107.827 303.717C106.438 303.69 104.663 303.236 103.611 302.309C101.326 296.666 102.152 274.634 102.152 267.187L102.228 213.776C101.964 197.527 102.102 180.33 102.254 164.068C101.674 156.334 102.285 140.936 102.176 132.733C102.084 125.809 101.77 106.947 102.631 100.722C106.386 94.5658 113.883 96.2478 120.419 96.5573ZM155.32 165.429C155.381 170.651 155.847 186.107 154.831 190.282C172.916 189.875 201.201 193.954 209.379 173.054C209.967 171.553 210.399 168.757 210.712 167.101C210.309 136.55 176.503 140.242 155.381 140.349L155.32 165.429Z" fill="#EF233C"/>
<path d="M102.228 213.776L102.975 213.916C103.539 212.748 103.281 211.661 103.175 210.332C106.831 208.758 111.927 210.575 115.693 210.732C123.147 211.043 129.993 210.715 137.386 212.23C146.487 214.094 155.668 217.681 165.018 218.171C173.777 218.657 182.126 217.2 190.736 216.037C194.387 215.547 198.822 216.118 202.583 215.806C207.325 215.418 218.599 213.235 221.865 217.249C222.443 219.645 221.815 221.922 220.439 223.926C223.015 221.953 223.496 221.463 226.704 221.276C231.28 226.323 243.854 245.699 248.408 252.336L267.037 279.841C270.371 284.759 273.761 289.614 276.897 294.683C280.101 299.485 278.534 303.681 272.273 303.748C262.157 303.85 251.963 303.619 241.829 303.806C237.822 303.877 232.521 303.984 228.667 303.271C224.817 299.752 205.818 271.877 201.663 265.476C195.25 255.596 181.762 237.24 176.534 227.654C168.881 228.002 162.122 227.859 154.477 227.668L154.533 272.928C154.539 280.732 154.751 288.706 154.327 296.456C153.589 301.187 153.329 303.908 147.907 303.819C134.488 303.605 121.216 303.966 107.827 303.717C106.438 303.69 104.663 303.236 103.611 302.309C101.326 296.665 102.152 274.634 102.152 267.187L102.228 213.776Z" fill="#EF233C"/>
<path d="M220.439 223.926C223.015 221.953 223.496 221.463 226.704 221.276C231.28 226.323 243.854 245.699 248.409 252.336L240.467 255.302C237.547 252.977 231.856 247.516 229.108 244.47C226.271 241.325 217.497 231.654 217.753 227.401C217.834 226.06 219.429 224.83 220.439 223.926Z" fill="#EF233C"/>
<path d="M102.254 164.068C103.611 169.408 103.195 174.611 103.236 180.137C106.046 178.722 107.663 178.918 109.938 178.029C119.638 174.244 127.903 174.428 138.043 175.727C140.9 176.092 151.624 178.314 153.916 177.989C155.707 175.369 152.804 169.4 155.32 165.429C155.381 170.651 155.847 186.106 154.831 190.282C172.916 189.875 201.201 193.954 209.379 173.054C209.967 171.553 210.399 168.757 210.712 167.101C212.873 166.865 215.514 166.262 217.327 167.129C218.427 168.255 218.487 169.35 218.848 170.9L219.315 170.582C219.679 172.163 218.965 173.944 218.548 175.585C231.496 175.759 243.214 173.47 255.055 178.886C256.81 179.688 259.763 182.053 261.309 182.332C262.771 180.098 261.926 178.985 263.333 177.008L263.914 176.886C259.146 196.93 245.264 212.343 226.704 221.276C223.496 221.463 223.015 221.953 220.439 223.926C221.815 221.922 222.443 219.645 221.865 217.249C218.6 213.235 207.325 215.418 202.583 215.806C198.822 216.118 194.387 215.547 190.736 216.037C182.126 217.2 173.777 218.657 165.018 218.171C155.668 217.681 146.487 214.094 137.386 212.23C129.993 210.715 123.147 211.043 115.693 210.732C111.927 210.575 106.831 208.758 103.175 210.332C103.281 211.661 103.539 212.748 102.975 213.916L102.228 213.776C101.964 197.527 102.102 180.33 102.254 164.068Z" fill="#EF233C"/>
<path d="M210.712 167.101C212.873 166.865 215.514 166.262 217.327 167.129C218.427 168.255 218.487 169.35 218.848 170.9C214.44 198.182 180.431 198.003 158.87 195.798C157.157 195.623 156.357 195.167 155.248 193.958C154.86 192.223 154.854 192.067 154.831 190.282C172.916 189.875 201.201 193.954 209.379 173.054C209.967 171.553 210.399 168.757 210.712 167.101Z" fill="#EF233C"/>
<path d="M120.419 96.5573C127.333 96.1021 136.049 96.1814 142.997 96.3916C175.558 97.3765 219.556 90.3778 245.799 113.136L246.3 113.574C246.561 114.157 246.941 115.123 247.293 115.606C243.197 117.884 230.014 120.013 227.902 124.365C229.354 125.752 230.618 125.65 231.897 127.317L231.995 128.164C212.083 114.243 191.306 115.105 167.771 114.888C159.271 115.367 145.128 113.449 136.399 112.349C134.46 112.104 128.447 109.773 126.286 109.074C120.138 107.085 108.224 103.642 102.631 100.722C106.386 94.5658 113.883 96.2478 120.419 96.5573Z" fill="#EF233C"/>
<path d="M102.631 100.722C106.386 94.5657 113.883 96.2477 120.419 96.5573C116.898 96.8994 113.381 97.2851 109.87 97.7136L109.921 98.0619C111.021 98.8454 111.325 98.7399 112.634 98.7786C118.716 98.9586 125.078 103.857 130.709 105.139C139.508 107.141 148.564 108.82 157.458 110.305C160.785 110.86 164.29 114.344 167.771 114.888C159.271 115.367 145.128 113.449 136.399 112.349C134.46 112.104 128.447 109.773 126.286 109.074C120.138 107.085 108.224 103.642 102.631 100.722Z" fill="#EF233C"/>
<path d="M246.3 113.574C255.375 121.829 262.647 133.632 264.388 145.787C262.115 143.624 261.874 135.824 258.968 131.995C255.889 131.104 245.004 132.457 241.344 133.172C240.687 133.301 240.741 133.652 240.429 134.382C240.738 136.036 244.534 141.897 245.772 144.104C246.521 143.518 246.554 143.506 247.425 143.111L247.69 143.944C246.508 144.756 247.135 144.584 245.778 144.581C244.083 143.366 242.871 140.092 241.012 137.815C238.097 134.247 235.167 131.458 231.995 128.164L231.897 127.317C230.618 125.65 229.354 125.752 227.902 124.365C230.014 120.013 243.197 117.884 247.293 115.606C246.941 115.123 246.561 114.157 246.3 113.574Z" fill="#EF233C"/>
<path d="M564.225 95.854C596.925 95.4108 629.738 96.0179 662.451 95.8099C667.805 95.776 673.525 95.6736 678.871 95.8687C684.036 95.7805 696.392 94.7324 700.352 97.7769C701.291 98.5003 701.724 99.6019 702.148 100.67C702.641 106.533 703.936 132.503 700.785 136.241C699.255 138.055 697.02 138.191 694.785 138.304C688.194 138.635 681.458 138.331 674.853 138.356C664.699 138.395 654.501 138.65 644.347 138.477C644.383 149.921 644.916 166.054 644.302 177.262C643.137 179.517 643.814 181.613 642.808 183.926C639.562 184.459 634.695 182.745 630.934 182.76C624.839 182.786 619.444 184.356 613.453 185.185C609.679 185.707 597.846 185.203 595.336 187.278C594.338 186.514 594.302 184.746 593.819 183.251C593.16 170.981 593.715 150.739 593.851 138.155C578.636 139.36 562.496 137.908 547.209 138.642C538.306 139.07 533.792 135.3 532.469 126.545C531.223 118.293 531.205 109.988 531.264 101.612C532.085 98.9244 533.187 96.7145 536.207 96.2865C544.866 95.0589 555.516 95.7462 564.225 95.854Z" fill="#EF233C"/>
<path d="M564.225 95.854C596.925 95.4108 629.738 96.0179 662.451 95.8099C667.805 95.776 673.525 95.6736 678.871 95.8687C684.036 95.7805 696.392 94.7324 700.352 97.7769C701.291 98.5003 701.724 99.6019 702.148 100.67L701.381 101.577L700.762 101.604C691.155 102.107 680.844 106.62 670.126 107.41C653.133 108.663 636.031 114.544 618.537 114.012C599.255 113.823 580.365 113.381 561.611 108.884C559.467 108.369 553.002 108.355 550.604 108.503L549.787 108.548C549.625 108.56 549.462 108.572 549.3 108.584C546.067 105.025 540.641 104.697 536.374 102.437C534.826 101.618 532.916 101.917 531.264 101.612C532.085 98.9244 533.187 96.7145 536.207 96.2865C544.866 95.0589 555.516 95.7462 564.225 95.854Z" fill="#EF233C"/>
<path d="M531.264 101.612C532.085 98.9244 533.187 96.7145 536.207 96.2865C544.866 95.0589 555.516 95.7462 564.225 95.854L563.724 95.9016C558.767 96.3283 542.063 95.4785 539.209 97.1012C539.747 99.6005 552.094 102.246 554.97 102.98C574.957 108.093 595.589 110.323 616.221 109.601C625.742 109.228 635.318 108.147 644.826 107.581C653.58 107.059 662.622 107.574 671.282 105.572C674.392 104.853 677.841 103.33 680.943 102.384C684.451 101.315 690.09 101.117 692.943 98.948C693.264 97.3979 693.512 97.7435 693.02 96.7422C688.695 95.8326 682.473 96.7613 678.871 95.8687C684.036 95.7805 696.392 94.7324 700.352 97.7769C701.291 98.5003 701.724 99.6019 702.148 100.67L701.381 101.577L700.762 101.604C691.155 102.107 680.844 106.62 670.126 107.41C653.133 108.663 636.031 114.544 618.537 114.012C599.255 113.823 580.365 113.381 561.611 108.884C559.467 108.369 553.002 108.355 550.604 108.503L549.787 108.548C549.625 108.56 549.462 108.572 549.3 108.584C546.067 105.025 540.641 104.697 536.374 102.437C534.826 101.618 532.916 101.917 531.264 101.612Z" fill="#EF233C"/>
<path d="M290.065 166.923C291.286 165.205 292.94 163.77 294.977 163.241C300.635 161.772 335.58 148.65 338.591 149.885C339.894 151.054 339.817 151.204 340.398 152.805C340.827 165.266 340.999 186.339 340.468 198.73C340.576 207.464 340.603 216.198 340.549 224.933C340.545 228.973 340.743 236.011 340.451 239.806C340.685 246.189 342.517 302.96 337.242 303.2C329.502 303.556 297.351 305.053 292.386 302.563C288.84 297.971 289.961 282.59 289.964 276.443L290.062 238.706C289.704 225.565 289.887 209.752 290.076 196.589C289.82 186.98 290.036 176.596 290.065 166.923Z" fill="#EF233C"/>
<path d="M290.065 166.923C291.286 165.205 292.94 163.77 294.977 163.241C300.635 161.772 335.58 148.65 338.591 149.885C339.894 151.054 339.817 151.204 340.398 152.805C340.827 165.266 340.999 186.339 340.468 198.73C338.643 196.201 340.869 196.442 339.086 194.053C338.892 194.293 336.937 194.645 336.496 194.794C327.972 197.994 321.174 194.045 312.703 194.323C306.23 194.534 298.512 197.025 292.167 198.53C291.068 198.791 291.041 200.937 290.885 201.904L290.647 201.809C290.616 199.683 290.622 198.623 290.076 196.589C289.82 186.98 290.036 176.596 290.065 166.923Z" fill="#EF233C"/>
<path d="M290.065 166.923C291.286 165.205 292.94 163.77 294.977 163.241C300.635 161.772 335.58 148.65 338.591 149.885C339.894 151.054 339.817 151.204 340.398 152.805C339.229 154.566 337.34 157.21 335.493 158.047C330.927 160.117 293.726 171.982 291.371 171.103C290.182 169.94 290.306 168.635 290.065 166.923Z" fill="#EF233C"/>
<path d="M290.076 196.589C290.623 198.623 290.616 199.683 290.647 201.809L290.885 201.904C291.041 200.937 291.068 198.791 292.167 198.53C298.512 197.025 306.23 194.534 312.703 194.323C321.174 194.045 327.972 197.994 336.496 194.794C336.937 194.645 338.892 194.293 339.086 194.053C340.869 196.442 338.643 196.201 340.468 198.73C340.576 207.464 340.603 216.198 340.549 224.933C340.545 228.973 340.743 236.011 340.451 239.806L339.706 243.458C339.228 239.699 340.681 232.109 338.441 229.779C335.855 228.519 333.78 229.387 331.277 228.853C320.406 226.527 310.943 226.928 300.02 227.989C298.333 228.149 294.33 226.688 293.088 227.289C289.358 229.093 291.898 235.646 290.71 238.799L290.062 238.706C289.704 225.565 289.887 209.752 290.076 196.589Z" fill="#EF233C"/>
<path d="M593.819 183.251C594.302 184.746 594.338 186.514 595.336 187.278C597.846 185.203 609.679 185.707 613.453 185.185C619.444 184.356 624.839 182.786 630.934 182.76C634.695 182.745 639.562 184.459 642.808 183.926C643.814 181.613 643.137 179.517 644.302 177.262C644.645 192.92 644.401 209.272 644.388 224.982C644.397 234.683 645.417 297.766 643.327 301.588C642.925 302.323 641.489 302.897 640.69 303.155C637.598 304.14 604.392 304.14 600.144 303.806C598.352 303.663 597.002 303.392 595.399 302.585C594.388 301.169 593.805 297.81 593.814 296.091C593.918 272.474 593.327 248.608 593.841 225.013C593.246 213.056 593.72 195.418 593.819 183.251Z" fill="#EF233C"/>
<path d="M593.819 183.251C594.302 184.746 594.338 186.514 595.336 187.278C597.846 185.203 609.679 185.707 613.453 185.185C619.444 184.356 624.839 182.786 630.934 182.76C634.695 182.745 639.562 184.459 642.808 183.926C643.814 181.613 643.137 179.517 644.302 177.262C644.645 192.92 644.401 209.272 644.388 224.982L643.778 226.309C643.056 224.781 643.413 217.147 643.453 214.924C628.248 219.623 622.474 218.122 607.9 213.748C605.914 213.152 598.55 213.908 595.205 213.202C594.022 215.659 595.787 221.801 593.841 225.013C593.246 213.056 593.72 195.418 593.819 183.251Z" fill="#EF233C"/>
<path d="M296.267 98.6615C303.705 95.0343 326.561 96.2869 335.489 97.3889C338.665 97.7809 341.36 101.46 342.795 104.186C344.779 110.462 344.745 120.143 341.992 126.156C335.052 141.314 307.249 147.717 293.1 141.678C288.38 135.113 290.028 125.815 289.847 118.076C289.685 111.101 289.716 102.867 296.267 98.6615Z" fill="#EF233C"/>
<path d="M296.267 98.6615C303.705 95.0343 326.561 96.2869 335.489 97.3889C338.665 97.7809 341.36 101.46 342.795 104.186C332.641 111.59 322.451 109.116 311.703 104.888C306.53 102.854 300.028 103.335 296.267 98.6615Z" fill="#EF233C"/>
</svg>
